# xmcd CD database file
#
# Track frame offsets:
#	150
#	24517
#	43507
#	62037
#	74175
#	92872
#	106477
#	125492
#	142402
#	159682
#	175357
#
# Disc length: 2650 seconds
#
# Revision: 2
# Processed by: cddbd v1.5.1PL2 Copyright (c) Steve Scherf et al.
# Submitted via: CDex 1.51
#
DISCID=ab0a580b
DTITLE=Lowell Fulson - Hold On
DYEAR=1900
DGENRE=Blues
TTITLE0=Working Man
TTITLE1=Shake, Rattle And Roll
TTITLE2=Me And My Woman
TTITLE3=Ain't That Sweet
TTITLE4=Quicker The Better
TTITLE5=It's No Need
TTITLE6=Real Name Is Danger Zone
TTITLE7=I'm Just A Fool About You
TTITLE8=Cryin' Won't Help
TTITLE9=Hold On
TTITLE10=Love Is The Bottom Line
EXTD=
EXTT0=
EXTT1=
EXTT2=
EXTT3=
EXTT4=
EXTT5=
EXTT6=
EXTT7=
EXTT8=
EXTT9=
EXTT10=
PLAYORDER=
